<?xml version="1.0" standalone="no"?>
<!DOCTYPE svg PUBLIC "-//W3C//DTD SVG 20010904//EN"
 "http://www.w3.org/TR/2001/REC-SVG-20010904/DTD/svg10.dtd">
<svg version="1.0" xmlns="http://www.w3.org/2000/svg"
 width="512.000000pt" height="442.000000pt" viewBox="0 0 512.000000 442.000000"
 preserveAspectRatio="xMidYMid meet">

<g transform="translate(0.000000,442.000000) scale(0.100000,-0.100000)"
fill="red" stroke="none" stroke-linejoin="round">
<path d="M4053 4383 c-16 -24 -18 -59 -21 -300 l-3 -273 -327 0 c-604 0 -838
-28 -1072 -129 -135 -58 -252 -140 -371 -260 -126 -127 -213 -254 -303 -442
-85 -178 -143 -349 -226 -670 -105 -405 -150 -524 -255 -685 -102 -156 -270
-299 -414 -352 -90 -32 -228 -41 -654 -42 l-348 0 -24 -24 c-13 -13 -27 -40
-30 -59 -4 -19 -5 -142 -3 -274 5 -357 -20 -336 420 -341 321 -4 522 6 654 33
451 92 839 393 1063 825 88 169 122 261 211 568 120 414 175 573 246 720 53
110 76 145 133 205 114 120 223 172 430 208 143 24 541 42 733 33 l137 -7 3
-306 c2 -251 6 -310 18 -329 20 -30 42 -35 82 -19 45 19 941 877 962 921 21
44 20 71 -1 108 -22 36 -878 851 -935 891 -52 35 -82 35 -105 0z"/>
<path d="M139 3880 c-62 -11 -85 -24 -106 -63 -16 -28 -18 -66 -21 -277 -4
-262 2 -309 41 -334 18 -11 109 -15 472 -19 487 -5 519 -9 628 -63 128 -65
286 -209 361 -332 22 -34 42 -62 46 -62 3 0 14 26 24 58 49 157 170 417 259
556 l51 79 -75 71 c-136 129 -357 259 -533 315 -123 39 -228 59 -371 71 -140
11 -708 11 -776 0z"/>
<path d="M4072 1950 c-11 -12 -23 -35 -26 -52 -3 -17 -6 -158 -6 -313 l0 -282
-137 -7 c-167 -8 -572 8 -703 28 -312 48 -477 174 -597 458 l-37 88 -39 -132
c-70 -240 -158 -451 -256 -612 l-42 -69 80 -77 c188 -181 414 -292 686 -335
149 -24 372 -35 717 -35 l327 0 3 -273 c3 -241 5 -276 21 -300 23 -35 53 -35
104 1 70 47 921 862 937 897 20 41 20 59 0 100 -15 32 -884 875 -936 909 -43
28 -74 30 -96 6z"/>
</g>
</svg>
